# xmcd
#
# Track frame offsets: 
#        150
#        19493
#        44279
#        62043
#        82669
#        103617
#        120893
#        140872
#        161162
#        186605
#        203128
#        223756
#        242185
#        264715
#        284419
#        304429
#        317373
#        336433
#
# Disc length: 4773 seconds
#
# Revision: 1
# Processed by: cddbd v1.5.2PL0 Copyright (c) Steve Scherf et al.
# Submitted via: ExactAudioCopy v0.95a5
#
DISCID=1912a312
DTITLE=Various Artist - I LOVE R&B 2006 The Sweetest [Disc 1]
DYEAR=2005
DGENRE=R&B
TTITLE0=Nelly - My Place
TTITLE1=Boys II Men - On Bended Knee
TTITLE2=Shanice - Lovin' You
TTITLE3=Sisqo - Incomplete
TTITLE4=K-Ci&JoJo - Tell Me It's Real
TTITLE5=Musiq - Forthenight
TTITLE6=Yasmeen - More Than Friends
TTITLE7=Christina Milian - Thank You
TTITLE8=Blackstreet - Happy Song(Tonite)
TTITLE9=Debelah Morgan - I Love You
TTITLE10=Avant - Don't Say No Just Say Yes
TTITLE11=Profyle - Overjoyed
TTITLE12=Peaches and Herb - Reunited
TTITLE13=Brian McKnight - Back At One
TTITLE14=Zhane - This Song Is For You
TTITLE15=Marvin Gaye and Diana Ross - Stop, Look, Listen
TTITLE16=Montell Jordan - Against All Odds
TTITLE17=Bobby Brown - Rock Wit'cha
EXTD=
EXTT0=
EXTT1=
EXTT2=
EXTT3=
EXTT4=
EXTT5=
EXTT6=
EXTT7=
EXTT8=
EXTT9=
EXTT10=
EXTT11=
EXTT12=
EXTT13=
EXTT14=
EXTT15=
EXTT16=
EXTT17=
PLAYORDER=
